<svg width="50" height="50" viewBox="0 0 99 97" fill="none" xmlns="http://www.w3.org/2000/svg">
<path d="M98.3092 47.9402C98.3092 74.1266 76.4282 95.3804 49.4046 95.3804C22.5412 95.3804 0.759566 74.3778 0.502303 48.4053C7.41518 47.8433 12.2828 44.5855 16.0791 40.0281C19.927 35.409 22.6895 29.4348 25.393 23.5881L25.4241 23.5209C28.1518 17.622 30.822 11.8629 34.4917 7.56833C38.1378 3.30145 42.755 0.5 49.4046 0.5C76.4282 0.5 98.3092 21.7538 98.3092 47.9402Z" transform="translate(-2.28882e-05 0.817261)" fill="#051736" stroke="#051736"/>
<path d="M29.9531 43.5547C28.3906 44.8984 26.6406 45.9297 24.7031 46.6484C22.7656 47.3672 20.7578 47.7266 18.6797 47.7266C17.0859 47.7266 15.5469 47.5156 14.0625 47.0938C12.5938 46.6875 11.2109 46.1094 9.91406 45.3594C8.63281 44.5938 7.46094 43.6797 6.39844 42.6172C5.33594 41.5547 4.42188 40.3828 3.65625 39.1016C2.90625 37.8047 2.32031 36.4219 1.89844 34.9531C1.49219 33.4688 1.28906 31.9297 1.28906 30.3359C1.28906 28.7422 1.49219 27.2031 1.89844 25.7188C2.32031 24.2344 2.90625 22.8516 3.65625 21.5703C4.42188 20.2734 5.33594 19.0938 6.39844 18.0312C7.46094 16.9688 8.63281 16.0625 9.91406 15.3125C11.2109 14.5469 12.5938 13.9609 14.0625 13.5547C15.5469 13.1328 17.0859 12.9219 18.6797 12.9219C20.7578 12.9219 22.7656 13.2812 24.7031 14C26.6406 14.7031 28.3906 15.7344 29.9531 17.0938L26.3906 22.9531C25.4062 21.8906 24.2422 21.0781 22.8984 20.5156C21.5547 19.9375 20.1484 19.6484 18.6797 19.6484C17.1953 19.6484 15.8047 19.9297 14.5078 20.4922C13.2109 21.0547 12.0781 21.8203 11.1094 22.7891C10.1406 23.7422 9.375 24.875 8.8125 26.1875C8.25 27.4844 7.96875 28.8672 7.96875 30.3359C7.96875 31.8047 8.25 33.1875 8.8125 34.4844C9.375 35.7656 10.1406 36.8906 11.1094 37.8594C12.0781 38.8281 13.2109 39.5938 14.5078 40.1562C15.8047 40.7188 17.1953 41 18.6797 41C20.1484 41 21.5547 40.7188 22.8984 40.1562C24.2422 39.5781 25.4062 38.7578 26.3906 37.6953L29.9531 43.5547Z" transform="translate(37 21)" fill="white"/>
</svg>
