<svg viewBox="-105 1 511 511.99899" xmlns="http://www.w3.org/2000/svg">
<path d="m258.75 0h-216.09c-23.25 0-42.164 18.914-42.164 42.164v427.67c0 23.254 18.914 42.168 42.164 42.168h216.09c23.25 0 42.164-18.914 42.164-42.168v-427.67c0-23.25-18.914-42.164-42.164-42.164zm-238.21 420.88v-130.31h114.14v130.31zm10.031-150.35 54.859-73.055 26.812 38.305-24.582 34.75zm124.14 20.039h30.535c5.5352 0 10.02-4.4844 10.02-10.02 0-5.5312-4.4844-10.02-10.02-10.02h-73.043l19.094-26.988c1.1836-1.0469 2.0664-2.3281 2.6328-3.7227l20.766-29.352h74.531l42.344 60.062h-6.168c-5.5312 0-10.02 4.4883-10.02 10.02 0 5.5352 4.4883 10.02 10.02 10.02h15.473v130.31h-126.16zm14.16-100.14 23.152-32.73 23.074 32.73zm74.637 5.5195c-0.44922-0.88672-1.0195-1.6992-1.6992-2.4102l-41.586-58.98c-1.875-2.6602-4.9258-4.2461-8.1797-4.2461h-0.007813c-3.25 0-6.3047 1.5781-8.1797 4.2305l-59.324 83.859-30.613-43.738c-1.8398-2.6289-4.8281-4.2188-8.0391-4.2734-3.1914-0.042969-6.25 1.4336-8.1797 4.0039l-57.168 76.129v-150.51h260.34v148.94zm-200.85-175.91h216.09c12.199 0 22.125 9.9258 22.125 22.125v37.809h-260.34v-37.809c0-12.199 9.9258-22.125 22.125-22.125zm216.09 471.92h-216.09c-12.199 0-22.125-9.9258-22.125-22.125v-28.922h260.34v28.922c0 12.199-9.9258 22.125-22.125 22.125z"/>
<path d="m159.96 461.76c-0.25-0.60156-0.5625-1.1836-0.92188-1.7344-0.35938-0.53906-0.78125-1.0625-1.2422-1.5234-2.3242-2.3242-5.7812-3.3945-9.0391-2.7344-0.64062 0.13281-1.2695 0.32031-1.8711 0.57031-0.61328 0.25-1.1953 0.5625-1.7344 0.92188-0.55078 0.36328-1.0625 0.78125-1.5234 1.2422-0.46094 0.46094-0.88281 0.98438-1.2422 1.5234-0.35937 0.55078-0.67187 1.1328-0.92187 1.7344-0.25 0.60156-0.44922 1.2344-0.57031 1.875-0.13281 0.64844-0.20312 1.3008-0.20312 1.9531 0 2.6445 1.0742 5.2188 2.9375 7.0938 0.46094 0.46094 0.97266 0.87109 1.5234 1.2422 0.53906 0.35938 1.1211 0.67188 1.7344 0.92188 0.60156 0.25 1.2305 0.44141 1.8711 0.57031 0.64062 0.12891 1.3047 0.19141 1.9531 0.19141 2.6367 0 5.2227-1.0625 7.0859-2.9258 1.8633-1.8633 2.9336-4.4492 2.9336-7.0938 0-0.65234-0.066406-1.3125-0.19922-1.9531-0.12109-0.64062-0.32031-1.2734-0.57031-1.875z"/>
<path d="m125.26 110.55c-16.496 0-29.918 13.418-29.918 29.918 0 16.496 13.422 29.918 29.918 29.918 16.496 0 29.918-13.422 29.918-29.918 0-16.5-13.418-29.918-29.918-29.918zm0 39.797c-5.4453 0-9.8789-4.4336-9.8789-9.8789 0-5.4492 4.4336-9.8789 9.8789-9.8789 5.4492 0 9.8789 4.4297 9.8789 9.8789 0 5.4453-4.4297 9.8789-9.8789 9.8789z"/>
<path d="m120.65 60.172h60.121c5.5312 0 10.02-4.4883 10.02-10.02 0-5.5352-4.4883-10.02-10.02-10.02h-60.121c-5.5312 0-10.02 4.4844-10.02 10.02 0 5.5312 4.4883 10.02 10.02 10.02z"/>
<path d="m78.566 370.78c16.574 0 30.059-13.484 30.059-30.059s-13.484-30.059-30.059-30.059c-16.574 0-30.059 13.484-30.059 30.059s13.484 30.059 30.059 30.059zm0-40.078c5.5273 0 10.02 4.4961 10.02 10.02s-4.4922 10.02-10.02 10.02c-5.5234 0-10.02-4.4961-10.02-10.02s4.4961-10.02 10.02-10.02z"/>
<path d="m246.9 310.66h-60.117c-5.5352 0-10.023 4.4844-10.023 10.02 0 5.5352 4.4883 10.02 10.023 10.02h60.117c5.5312 0 10.02-4.4844 10.02-10.02 0-5.5352-4.4883-10.02-10.02-10.02z"/>
<path d="m246.9 345.73h-60.117c-5.5352 0-10.023 4.4883-10.023 10.02 0 5.5352 4.4883 10.02 10.023 10.02h60.117c5.5312 0 10.02-4.4844 10.02-10.02 0-5.5312-4.4883-10.02-10.02-10.02z"/>
<path d="m108.62 380.8h-60.117c-5.5312 0-10.02 4.4844-10.02 10.02s4.4883 10.02 10.02 10.02h60.117c5.5352 0 10.02-4.4844 10.02-10.02s-4.4844-10.02-10.02-10.02z"/>
<path d="m246.9 380.8h-60.117c-5.5352 0-10.023 4.4844-10.023 10.02s4.4883 10.02 10.023 10.02h60.117c5.5312 0 10.02-4.4844 10.02-10.02s-4.4883-10.02-10.02-10.02z"/>
<path d="m215.75 284.02c0.25 0.61328 0.5625 1.1953 0.92188 1.7344 0.35938 0.55078 0.78125 1.0625 1.2422 1.5234 0.46094 0.46094 0.97266 0.88281 1.5234 1.2422 0.53906 0.35937 1.1211 0.67187 1.7344 0.92187 0.60156 0.25 1.2305 0.44922 1.8711 0.57031 0.64063 0.13281 1.3047 0.20312 1.9531 0.20312 0.65234 0 1.3125-0.070312 1.957-0.20312 0.64062-0.12109 1.2695-0.32031 1.8828-0.57031 0.60156-0.25 1.1836-0.5625 1.7227-0.92187 0.55078-0.35938 1.0625-0.78125 1.5234-1.2422s0.88281-0.97266 1.2539-1.5234c0.35938-0.53906 0.66016-1.1211 0.91016-1.7344 0.25-0.60156 0.44922-1.2305 0.58203-1.8711 0.12891-0.64062 0.1875-1.3047 0.1875-1.957 0-0.64844-0.058594-1.3125-0.1875-1.9531-0.13281-0.64063-0.33203-1.2695-0.58203-1.8711-0.25-0.61328-0.55078-1.1953-0.91016-1.7344-0.37109-0.55078-0.79297-1.0625-1.2539-1.5234-0.46094-0.46094-0.97266-0.88281-1.5234-1.2422-0.53906-0.35938-1.1211-0.67188-1.7227-0.92188-0.61328-0.25-1.2422-0.44141-1.8828-0.57031-1.2852-0.26172-2.6172-0.26172-3.9102 0-0.64062 0.12891-1.2695 0.32031-1.8711 0.57031-0.61328 0.25-1.1953 0.5625-1.7344 0.92188-0.55078 0.35938-1.0625 0.78125-1.5234 1.2422-0.46094 0.46094-0.88281 0.97266-1.2422 1.5234-0.35938 0.53906-0.67188 1.1211-0.92188 1.7344-0.25 0.60156-0.44141 1.2305-0.57031 1.8711-0.13281 0.64062-0.20312 1.3047-0.20312 1.9531 0 0.65234 0.070313 1.3164 0.20312 1.957 0.12891 0.64062 0.32031 1.2695 0.57031 1.8711z"/>
</svg>
